<?xml version="1.0" standalone="no"?>
<!DOCTYPE svg PUBLIC "-//W3C//DTD SVG 20010904//EN"
 "http://www.w3.org/TR/2001/REC-SVG-20010904/DTD/svg10.dtd">
<svg version="1.0" xmlns="http://www.w3.org/2000/svg"
 width="1024.000000pt" height="1024.000000pt" viewBox="0 0 1024.000000 1024.000000"
 preserveAspectRatio="xMidYMid meet">
<metadata>
Created by potrace 1.14, written by Peter Selinger 2001-2017
</metadata>
<g transform="translate(0.000000,1024.000000) scale(0.100000,-0.100000)"
fill="#000000" stroke="none">
<path d="M9163 8743 c-230 -186 -373 -319 -973 -908 -118 -116 -289 -282 -379
-368 -157 -150 -164 -159 -155 -185 7 -19 17 -28 37 -30 23 -3 42 10 105 70
397 376 1279 1259 1362 1363 87 110 84 105 72 105 -6 0 -37 -21 -69 -47z"/>
<path d="M4940 8063 c-361 -19 -738 -87 -1044 -188 -470 -153 -940 -415 -1346
-749 -82 -67 -327 -307 -421 -411 -64 -72 -215 -259 -228 -283 -13 -25 -5 -49
20 -62 26 -14 62 5 83 45 10 19 26 42 35 52 9 10 50 59 91 108 115 139 401
420 545 534 288 229 654 444 1006 591 434 182 928 275 1454 274 402 -1 738
-50 1104 -160 287 -87 695 -277 973 -452 122 -76 151 -91 167 -83 50 27 31 71
-56 124 -237 145 -424 246 -633 339 -525 235 -1168 353 -1750 321z"/>
<path d="M4865 7674 c-505 -39 -873 -137 -1325 -351 -684 -323 -1237 -812
-1678 -1482 -91 -139 -94 -146 -81 -170 32 -57 65 -37 137 79 318 513 752 952
1249 1263 423 265 866 443 1293 521 346 64 868 72 1200 21 435 -68 836 -207
1187 -411 117 -68 146 -75 168 -39 25 38 2 60 -132 131 -444 236 -769 343
-1259 415 -107 15 -205 21 -424 23 -157 2 -307 2 -335 0z"/>
<path d="M7515 7276 c-33 -14 -55 -52 -55 -92 0 -54 78 -134 132 -134 61 0
118 88 97 150 -22 62 -115 103 -174 76z"/>
<path d="M7131 7049 c-102 -98 -149 -138 -160 -134 -60 24 -76 19 -143 -44
-36 -34 -71 -61 -77 -61 -6 0 -38 13 -71 30 -197 99 -541 213 -800 264 -270
53 -461 70 -775 70 -292 0 -422 -13 -690 -65 -812 -158 -1533 -627 -2072
-1349 -149 -201 -251 -368 -379 -628 -101 -204 -121 -237 -156 -263 -33 -23
-51 -29 -95 -29 -58 0 -93 -22 -93 -59 0 -40 26 -51 118 -51 49 -1 96 -6 108
-13 12 -7 97 -97 189 -202 92 -104 225 -250 294 -324 69 -74 132 -142 139
-152 21 -30 74 -23 93 12 14 28 -1 51 -109 162 -53 53 -91 97 -86 97 12 0 64
-48 64 -60 0 -5 8 -11 18 -14 9 -3 25 -18 34 -33 10 -16 18 -22 18 -14 0 19
30 -6 30 -26 0 -8 5 -11 10 -8 6 4 8 10 6 14 -3 4 0 8 7 8 7 0 19 2 27 4 8 2
15 -2 15 -10 0 -8 -7 -16 -15 -18 -13 -4 -13 -3 0 6 13 9 13 11 -2 11 -9 0
-20 -4 -23 -10 -3 -5 -1 -10 5 -10 7 0 9 -7 6 -17 -6 -16 -6 -16 12 0 25 23
35 21 27 -5 -7 -22 -6 -22 11 -5 12 11 15 20 9 25 -12 8 -13 27 -2 38 4 4 7
-1 7 -12 0 -21 27 -49 48 -49 6 0 11 5 10 10 -1 6 -9 8 -17 7 -13 -3 -13 -1
-1 13 7 9 9 15 4 14 -21 -4 -34 2 -31 14 1 8 -14 12 -50 12 -29 -1 -48 2 -42
6 8 4 5 10 -6 17 -17 9 -16 10 5 17 15 5 25 3 31 -6 4 -7 12 -10 16 -5 4 4 0
13 -10 20 -9 7 -17 17 -17 22 0 5 -9 15 -20 22 -12 7 -20 8 -20 2 0 -5 -4 -10
-8 -10 -5 0 -7 13 -4 30 3 21 0 32 -12 36 -9 3 -16 12 -16 20 0 8 -4 14 -8 14
-5 0 -23 19 -40 43 -17 23 -63 75 -101 115 -39 40 -71 78 -71 84 0 5 -7 7 -16
4 -8 -3 -13 -2 -10 3 3 5 -1 12 -10 15 -24 9 -52 7 -56 -4 -1 -5 -13 -11 -26
-13 -40 -6 -47 -22 -22 -59 21 -32 21 -33 0 -8 -12 14 -65 74 -118 133 -53 60
-98 113 -100 118 -2 4 8 23 21 41 14 18 50 90 81 159 445 991 1294 1732 2262
1973 303 76 540 100 911 93 411 -7 705 -53 1058 -164 154 -49 435 -173 435
-193 0 -5 -6 -13 -14 -17 -7 -4 -112 -103 -232 -219 -230 -222 -318 -304 -339
-316 -7 -5 -57 6 -110 22 -265 82 -557 123 -870 123 -319 0 -531 -32 -880
-130 -128 -37 -449 -170 -650 -271 -457 -228 -777 -459 -1166 -839 -86 -84
-159 -150 -164 -145 -4 4 -5 2 -2 -4 4 -7 -11 -28 -33 -48 -37 -33 -45 -36
-103 -36 -69 0 -97 -17 -97 -57 0 -39 33 -55 116 -56 l78 -2 119 -140 c118
-138 558 -585 576 -585 28 0 61 22 67 45 6 26 7 26 21 5 8 -11 11 -25 6 -33
-4 -6 -8 -16 -8 -22 0 -5 -12 -16 -26 -24 -23 -13 -33 -13 -70 -1 -24 8 -59
29 -76 46 -32 31 -33 31 -33 9 0 -13 5 -27 10 -30 6 -3 10 -12 10 -18 0 -8 -3
-8 -9 1 -6 10 -10 10 -21 -3 -7 -8 -19 -15 -26 -15 -8 0 -14 -5 -14 -11 0 -5
5 -7 12 -3 7 5 8 3 4 -5 -5 -7 0 -18 10 -27 18 -13 18 -14 -1 -8 -15 4 -17 4
-6 -4 8 -6 20 -8 28 -5 7 3 13 0 13 -6 0 -6 -13 -11 -29 -11 -15 0 -44 -11
-64 -24 -19 -13 -39 -21 -43 -18 -4 4 -4 2 -1 -4 3 -5 -45 -59 -106 -119 -62
-59 -241 -236 -399 -394 -234 -231 -288 -290 -288 -312 0 -18 14 -41 41 -69
26 -26 32 -37 17 -29 -13 7 -27 12 -31 11 -5 -1 -6 2 -2 8 3 5 1 10 -6 10 -7
0 -21 8 -32 17 -19 18 -20 17 -8 -7 l12 -25 -22 25 c-11 14 -25 25 -29 25 -5
0 -12 3 -16 8 -4 4 -12 7 -18 7 -5 0 -1 -6 9 -14 11 -8 24 -12 29 -9 5 4 6 1
2 -6 -4 -6 1 -19 11 -29 11 -9 12 -13 3 -7 -36 23 -139 132 -132 140 4 4 3 6
-3 3 -5 -4 -28 11 -50 33 -43 43 -73 49 -98 21 -28 -31 -20 -51 50 -131 37
-42 51 -61 32 -44 -19 18 -43 33 -52 33 -9 0 -17 5 -17 11 0 5 5 7 12 3 7 -4
8 -3 4 4 -6 10 -17 10 -55 3 -2 -1 3 -9 10 -18 11 -13 11 -15 1 -9 -17 10 -57
-30 -66 -66 -3 -15 -13 -33 -21 -42 -8 -8 -15 -19 -15 -24 0 -5 -7 -15 -15
-22 -8 -7 -12 -16 -10 -21 3 -4 -3 -26 -14 -47 -11 -22 -17 -42 -14 -46 3 -3
-1 -14 -11 -25 -13 -14 -17 -39 -17 -112 -1 -52 -3 -88 -6 -81 -8 20 -22 14
-20 -9 1 -16 6 -19 27 -14 24 6 25 6 5 -10 -20 -16 -20 -16 4 -11 18 4 34 -5
70 -41 l46 -46 -47 41 c-47 41 -63 44 -95 19 -7 -5 -13 -22 -13 -37 0 -22 36
-65 187 -219 102 -106 194 -196 204 -202 35 -18 101 33 82 63 -4 7 -1 8 6 3
16 -9 5 -54 -17 -72 -33 -24 -70 -15 -118 29 -93 86 -334 332 -334 341 0 5 -7
4 -15 -3 -13 -11 -15 -10 -12 1 2 8 2 10 -1 6 -2 -4 -10 0 -16 9 -10 13 -15
14 -21 4 -5 -8 -4 -11 2 -7 12 7 37 -36 31 -53 -2 -6 -40 27 -86 74 -80 84
-93 93 -127 80 -22 -9 -38 -53 -25 -69 13 -16 3 -45 -16 -45 -8 0 -25 -18 -39
-40 -14 -22 -29 -40 -33 -40 -10 0 -32 -50 -32 -73 0 -10 -7 -26 -16 -34 -12
-13 -15 -32 -11 -92 4 -87 27 -201 39 -201 4 0 8 5 8 10 0 24 32 7 47 -25 9
-19 25 -37 34 -40 10 -3 21 -14 24 -23 8 -25 63 -82 78 -82 8 0 19 -10 26 -22
14 -25 95 -88 112 -88 5 0 7 -4 4 -10 -3 -5 0 -7 8 -4 8 3 33 -14 60 -42 28
-28 81 -65 134 -91 86 -44 90 -45 196 -47 79 -2 110 1 118 11 14 16 39 17 40
1 0 -7 5 -3 11 9 6 13 19 25 30 28 10 4 16 11 12 16 -3 6 2 19 11 29 20 23 25
45 32 155 3 44 9 84 14 90 5 5 9 17 9 27 0 11 7 18 19 18 11 0 21 5 23 11 3 8
19 10 53 4 28 -4 44 -10 38 -12 -26 -9 -12 -23 22 -23 20 0 52 -8 73 -19 28
-14 67 -20 162 -23 110 -5 130 -3 163 14 21 10 42 16 47 13 11 -7 18 21 23 85
1 25 6 43 10 40 5 -3 16 13 26 35 22 50 36 251 18 258 -9 3 -7 9 4 23 9 10 22
35 29 54 8 19 24 44 37 55 13 11 23 29 23 38 0 10 11 28 25 41 14 13 36 43 49
67 14 29 29 44 42 44 11 0 18 6 16 14 -2 8 3 11 11 8 11 -4 13 0 10 14 -4 14
-1 18 10 14 9 -4 27 8 48 33 19 21 45 45 59 52 30 16 41 31 35 47 -2 7 2 10 9
7 8 -3 17 -1 21 5 3 6 17 11 31 11 13 0 24 5 24 10 0 6 8 10 18 10 10 0 28 7
40 16 12 8 22 12 22 7 0 -4 34 -9 77 -10 42 -1 79 -6 82 -11 7 -11 95 -34 134
-35 17 0 27 -5 27 -14 0 -12 9 -13 40 -8 26 4 40 3 40 -4 0 -6 -5 -11 -11 -11
-6 0 -3 -7 6 -16 12 -13 28 -15 66 -11 47 6 50 5 59 -19 9 -22 14 -25 40 -19
19 4 30 3 30 -4 0 -6 11 -11 25 -11 14 0 25 -4 25 -9 0 -5 9 -11 20 -14 13 -3
20 -14 20 -29 0 -29 15 -52 28 -44 6 3 12 2 14 -3 5 -14 78 -26 78 -12 0 6 17
11 40 11 33 0 40 -3 40 -19 0 -17 5 -18 40 -14 32 5 40 3 38 -8 -2 -10 9 -15
36 -17 21 -2 47 -11 58 -21 19 -18 65 -30 123 -32 26 0 27 -2 10 -9 -16 -7
-17 -9 -3 -9 9 -1 24 6 32 15 9 8 16 11 16 5 0 -7 25 -11 65 -11 62 0 65 -1
65 -24 0 -23 4 -25 83 -31 45 -4 98 -6 117 -4 76 6 420 -1 420 -9 0 -4 -63 -7
-141 -7 -77 0 -145 -3 -152 -7 -11 -7 205 -15 258 -10 11 1 59 2 106 2 90 -1
142 7 134 20 -5 8 68 20 127 20 22 0 46 7 54 15 9 8 24 15 35 15 11 0 28 4 37
9 10 5 42 6 72 2 67 -8 127 6 133 31 3 10 14 18 25 18 12 0 24 5 27 10 3 6 18
7 31 4 18 -5 34 0 54 15 17 12 44 21 65 21 19 0 35 4 35 9 0 5 9 11 20 14 11
3 24 16 29 29 8 18 5 27 -11 41 -23 20 -28 20 -48 7 -13 -9 -13 -11 0 -20 11
-7 -3 -10 -47 -10 -41 0 -65 5 -70 13 -8 13 -43 31 -43 22 0 -2 8 -11 17 -21
17 -16 15 -17 -35 -11 -45 5 -52 4 -52 -11 -1 -16 -1 -16 -11 1 -14 24 -24 22
-61 -13 -38 -37 -46 -37 -50 -4 l-3 25 -22 -20 c-12 -12 -28 -21 -35 -21 -8 0
-22 -10 -32 -21 -16 -20 -26 -21 -114 -17 -62 3 -97 8 -100 16 -2 7 -16 12
-30 11 -15 0 -21 -3 -14 -6 6 -2 12 -9 12 -14 0 -13 -28 -11 -32 3 -3 8 -35 9
-128 1 -72 -6 -140 -6 -160 -1 -19 4 -96 10 -171 13 -129 4 -188 12 -233 31
-14 5 -17 4 -12 -4 5 -8 0 -12 -13 -12 -12 0 -21 4 -21 8 0 5 -21 9 -46 11
-26 1 -57 9 -70 18 -14 9 -34 13 -47 9 -14 -3 -33 1 -47 11 -13 9 -20 11 -16
5 4 -7 1 -12 -8 -12 -8 0 -16 5 -18 11 -2 5 -11 7 -22 3 -14 -5 -15 -9 -4 -15
7 -5 8 -9 2 -9 -6 0 -26 13 -45 29 -32 28 -67 41 -114 41 -12 0 -33 8 -46 18
-13 10 -35 17 -49 16 -14 -1 -34 3 -45 9 -11 7 -27 13 -35 14 -8 1 -45 13 -82
27 -38 14 -68 21 -68 16 0 -5 -7 -7 -15 -4 -8 4 -15 12 -15 20 0 8 -10 14 -25
14 -14 0 -25 5 -25 10 0 6 -9 10 -20 10 -11 0 -20 7 -20 15 0 8 -8 15 -18 15
-10 0 -24 6 -31 13 -11 10 -13 10 -7 0 11 -19 -2 -16 -26 7 -17 16 -24 17 -37
7 -12 -10 -14 -9 -8 6 4 10 2 17 -6 17 -7 0 -19 6 -25 12 -7 7 -20 13 -30 13
-9 0 -16 6 -14 13 1 7 -10 17 -24 22 -15 6 -40 20 -55 31 -16 11 -29 17 -29
12 0 -4 -5 0 -11 9 -5 10 -16 18 -23 18 -17 0 -106 83 -106 98 0 6 38 -13 85
-44 188 -122 436 -237 710 -328 762 -253 1618 -215 2375 106 333 142 673 351
935 577 176 151 619 604 653 667 16 30 2 61 -33 70 -14 3 -23 10 -20 14 6 10
-52 7 -62 -4 -4 -5 -3 -6 5 -2 7 5 12 1 12 -9 0 -12 -5 -15 -16 -11 -26 10
-53 -3 -70 -32 -10 -17 -13 -20 -10 -7 5 17 3 16 -14 -5 -11 -14 -26 -32 -33
-40 -15 -17 -11 -54 5 -44 7 4 8 2 4 -4 -5 -8 -15 -8 -33 -1 -23 8 -30 6 -51
-16 -14 -15 -22 -34 -19 -45 5 -18 -8 -21 -30 -7 -9 6 -11 3 -7 -7 4 -11 0
-16 -15 -16 -15 0 -21 -7 -22 -25 -3 -49 -15 -69 -36 -61 -8 3 -28 -3 -43 -14
-16 -11 -32 -19 -37 -18 -11 4 -53 -34 -53 -48 0 -6 -16 -19 -35 -28 -20 -10
-33 -21 -31 -25 7 -10 -38 -49 -69 -61 -16 -6 -23 -15 -19 -25 5 -12 -2 -15
-30 -15 -20 0 -36 -5 -36 -11 0 -7 -8 -19 -18 -28 -10 -9 -21 -24 -25 -33 -3
-10 -15 -18 -26 -18 -10 0 -26 -11 -35 -25 -9 -14 -23 -25 -30 -25 -8 0 -16
-7 -19 -14 -6 -15 -62 -34 -111 -38 -14 -1 -26 -6 -26 -11 0 -4 -4 -5 -10 -2
-5 3 -11 1 -11 -4 -1 -6 -2 -15 -3 -19 -2 -14 -50 -62 -61 -62 -5 0 -4 4 4 9
8 5 9 11 3 15 -6 3 -13 2 -17 -3 -3 -6 -13 -8 -23 -5 -14 5 -14 3 2 -10 22
-18 14 -21 -15 -6 -15 8 -19 7 -19 -5 0 -9 -9 -15 -25 -15 -15 0 -25 -6 -25
-14 0 -8 -9 -18 -20 -21 -11 -4 -18 -10 -15 -14 2 -5 -7 -7 -20 -5 -14 1 -23
-2 -19 -7 3 -5 -6 -9 -19 -9 -14 0 -30 -7 -37 -15 -7 -8 -19 -15 -27 -15 -8 0
-11 -4 -8 -10 6 -9 -16 -15 -39 -11 -4 1 -13 -5 -20 -13 -13 -17 -155 -68
-168 -60 -4 3 -8 1 -8 -4 0 -9 -25 -20 -65 -28 -31 -6 -125 -35 -167 -51 -24
-10 -35 -19 -31 -27 4 -6 -1 -5 -11 3 -13 11 -20 11 -28 3 -7 -7 -21 -12 -33
-12 -11 0 -29 -9 -38 -21 -14 -15 -25 -19 -44 -15 -15 4 -22 3 -19 -3 4 -5 -8
-9 -26 -9 -18 0 -62 -8 -98 -17 -36 -9 -77 -16 -92 -16 -15 0 -30 -5 -33 -10
-4 -5 -16 -9 -29 -9 -12 0 -26 -4 -32 -9 -10 -9 -109 -22 -99 -13 3 4 27 9 53
13 l47 6 -47 2 c-26 0 -59 -4 -74 -9 -15 -6 -51 -11 -81 -11 -29 -1 -51 -4
-49 -8 3 -4 -41 -8 -97 -8 -163 -2 -181 -3 -210 -14 -19 -8 -31 -8 -40 -1 -7
6 -58 14 -112 18 -66 5 -93 10 -80 15 13 6 8 7 -15 3 -19 -2 -80 2 -135 11
-55 9 -122 19 -150 22 -27 3 -59 10 -70 16 -13 7 -20 7 -23 -2 -2 -7 -13 -4
-32 9 -15 11 -45 23 -66 26 -22 3 -46 10 -55 15 -9 4 -26 6 -38 4 -11 -2 -21
0 -21 6 0 5 -8 9 -18 9 -10 0 -35 9 -55 19 -21 10 -45 17 -55 15 -9 -3 -43 11
-76 31 -49 29 -61 33 -74 23 -11 -9 -13 -9 -9 -1 9 14 -88 73 -151 93 -23 7
-47 19 -53 27 -6 7 -16 13 -21 13 -20 0 -146 89 -166 118 -36 50 -25 54 31 12
60 -46 262 -152 391 -205 649 -268 1331 -306 2016 -113 299 84 672 250 927
412 190 120 379 260 498 367 289 261 550 527 822 842 85 97 163 182 173 187
10 6 59 10 107 10 97 0 113 7 113 50 0 40 -29 60 -86 60 -32 0 -63 8 -89 23
-37 20 -49 40 -155 252 -122 243 -199 377 -313 540 -89 128 -233 306 -336 417
-79 84 -88 103 -67 136 5 8 3 19 -3 25 -9 9 -10 7 -5 -8 7 -17 6 -18 -8 -5
-15 14 -14 16 8 25 32 14 54 40 84 98 14 26 31 47 38 47 7 0 11 4 8 9 -8 13 4
42 14 36 5 -3 8 4 7 15 -1 11 -4 20 -8 20 -3 0 -14 18 -25 40 -10 22 -25 40
-31 40 -7 0 -13 6 -13 14 0 8 -10 23 -22 33 -13 10 -34 32 -48 48 -18 22 -13
19 20 -10 184 -163 350 -348 547 -610 55 -72 94 -131 216 -325 32 -49 43 -60
66 -60 52 0 68 46 32 92 -11 13 -60 85 -109 159 -161 243 -333 460 -508 640
-83 85 -113 122 -85 105 5 -3 11 3 14 14 3 11 0 23 -5 27 -7 4 -8 1 -3 -7 5
-9 4 -11 -4 -6 -8 6 -9 12 -2 20 6 7 7 17 3 21 -4 5 -1 5 6 1 7 -4 9 -13 6
-19 -5 -8 -2 -8 7 1 36 34 52 174 22 191 -10 5 -17 11 -16 13 1 2 0 13 -3 25
-4 15 -17 23 -41 28 -39 7 -56 -1 -33 -15 13 -8 13 -10 0 -10 -9 0 -21 5 -27
11 -9 9 -10 6 -6 -11 4 -16 3 -21 -5 -16 -7 4 -12 1 -13 -6 -1 -7 -5 -2 -9 12
l-8 25 -1 -27 c-1 -20 -19 -45 -61 -88 -33 -33 -65 -61 -72 -62 -7 -2 -23 -13
-37 -25 -14 -12 -27 -21 -29 -18 -9 8 52 76 104 116 63 49 84 75 84 105 0 22
-28 54 -49 54 -6 0 -29 18 -50 41 -35 36 -43 40 -75 35 -20 -3 -52 -8 -71 -11
-29 -5 -63 -33 -178 -144 -141 -137 -144 -139 -209 -153 l-66 -16 -209 -208
c-115 -115 -213 -217 -216 -226 -4 -10 -11 -18 -17 -18 -5 0 -10 -9 -10 -21 0
-13 4 -18 13 -14 6 4 3 0 -8 -9 -46 -35 -47 -37 -34 -53 17 -19 -3 -32 -45
-29 -19 2 -36 -4 -43 -13 -6 -9 -15 -17 -20 -17 -31 -5 -53 -19 -49 -29 3 -10
-3 -10 -32 -2 l-36 11 230 224 c276 270 460 436 474 427 5 -3 10 -2 10 4 0 5
17 12 38 16 57 10 69 19 231 176 127 123 151 151 151 176 0 34 -16 53 -44 53
-13 0 -76 -54 -165 -141z m-342 -746 c-22 -29 -213 -214 -230 -224 -10 -5 -23
-3 -35 5 -17 13 -16 14 9 9 25 -5 41 7 145 111 114 112 139 135 111 99z m669
-188 c309 -297 585 -700 771 -1125 22 -52 54 -115 71 -140 l29 -44 -32 -27
c-18 -15 -36 -24 -41 -21 -5 3 -6 0 -2 -6 6 -10 -168 -222 -182 -222 -3 0 7
13 22 29 17 18 25 34 21 42 -5 7 -4 10 2 6 6 -4 21 5 34 20 13 14 18 22 10 18
-8 -5 -33 -9 -56 -10 -23 -2 -56 -6 -75 -10 -44 -10 -122 -78 -161 -142 -12
-18 -25 -33 -30 -33 -5 0 -9 -9 -9 -21 0 -15 -5 -19 -15 -15 -8 3 -14 2 -13
-2 4 -14 -34 -62 -45 -55 -6 3 -7 1 -3 -6 4 -6 0 -14 -9 -17 -13 -6 -14 -8 -3
-15 10 -7 10 -9 -3 -9 -9 0 -28 -15 -43 -32 l-27 -33 32 -13 c17 -7 29 -15 26
-18 -3 -3 -15 -1 -27 6 -11 6 -29 9 -39 5 -21 -6 -44 -52 -35 -68 4 -7 4 -9
-1 -5 -5 5 -14 -1 -22 -12 -8 -11 -20 -17 -31 -14 -13 5 -14 4 -3 -4 11 -8 10
-12 -8 -21 -12 -7 -25 -10 -29 -7 -4 3 -14 1 -22 -5 -13 -7 -12 -9 3 -9 9 0
17 -4 17 -9 0 -15 -30 -41 -46 -41 -8 0 -14 -9 -14 -20 0 -11 -3 -19 -7 -18
-22 7 -55 -35 -56 -70 0 -7 -7 -10 -14 -8 -8 3 -11 1 -8 -4 3 -6 -1 -10 -10
-10 -9 0 -14 -4 -10 -9 3 -5 0 -13 -6 -17 -7 -4 -9 -3 -5 4 3 5 0 12 -6 15
-24 8 -38 -5 -38 -34 0 -27 12 -35 51 -31 3 1 6 -6 6 -14 0 -19 -33 -48 -46
-40 -12 8 -3 36 11 36 6 0 5 -6 -2 -15 -7 -8 -8 -15 -2 -15 5 0 15 7 22 15 14
17 0 26 -35 22 -13 -1 -19 3 -17 13 3 13 1 13 -10 1 -10 -11 -10 -14 0 -18 19
-7 14 -23 -5 -17 -15 5 -15 3 1 -10 11 -9 15 -16 9 -16 -7 0 -14 4 -18 10 -8
12 -67 8 -82 -7 -7 -6 -13 -19 -13 -28 0 -11 -6 -15 -18 -11 -13 5 -22 -1 -30
-19 -6 -14 -16 -25 -22 -25 -6 0 -8 -5 -4 -12 4 -7 3 -8 -5 -4 -6 4 -23 -2
-37 -13 -15 -12 -35 -21 -45 -21 -13 0 -19 -7 -19 -24 0 -19 -4 -22 -24 -19
-17 4 -23 10 -20 22 3 9 -1 6 -8 -7 -8 -13 -25 -28 -39 -35 -30 -16 -122 -51
-129 -49 -3 0 -12 -6 -20 -13 -8 -7 -28 -17 -44 -21 -26 -6 -27 -8 -12 -19 15
-11 15 -13 1 -19 -9 -3 -14 -2 -11 2 3 5 -11 8 -30 8 -20 -1 -32 -5 -30 -12 2
-6 -2 -11 -10 -11 -7 0 -11 5 -8 11 3 6 -3 1 -13 -10 -11 -12 -30 -25 -44 -29
-45 -13 -99 -39 -99 -47 0 -4 -3 -7 -7 -7 -26 4 -52 -4 -71 -21 -12 -11 -25
-20 -29 -20 -7 0 -129 -43 -168 -60 -11 -5 -36 -14 -57 -21 -20 -7 -34 -17
-32 -24 3 -6 -2 -12 -10 -12 -8 0 -12 5 -9 10 4 6 1 7 -8 2 -7 -5 -25 -10 -39
-11 -14 -1 -32 -4 -40 -7 -8 -3 -42 -15 -75 -28 -33 -12 -74 -23 -91 -24 -17
-1 -36 -5 -41 -8 -6 -4 -44 -10 -84 -13 -41 -4 -78 -10 -84 -14 -5 -4 -41 -10
-80 -13 -151 -13 -206 -20 -209 -26 -2 -3 -111 -3 -243 2 -256 8 -320 11 -343
21 -29 11 -238 34 -264 29 -21 -4 -25 -2 -20 11 7 17 -11 22 -21 6 -3 -5 -11
-10 -16 -10 -6 0 -8 4 -5 9 6 10 -26 21 -62 21 -13 0 -21 4 -17 9 3 5 1 12 -5
16 -5 3 -10 2 -10 -4 0 -7 -9 -7 -27 0 -16 6 -29 9 -30 7 -1 -2 -11 4 -21 13
-28 24 -54 31 -64 17 -6 -10 -8 -10 -8 0 0 6 -6 12 -12 12 -7 0 -51 16 -98 35
-47 19 -97 35 -112 35 -16 0 -28 4 -28 8 0 8 -88 52 -104 52 -5 0 -41 21 -81
48 -41 26 -93 60 -117 75 -24 15 -63 43 -88 62 -60 46 -116 76 -125 67 -5 -4
-5 -1 -1 6 9 15 -9 16 -37 1 -26 -15 -117 -107 -117 -120 0 -5 -7 -9 -15 -9
-8 0 -15 -4 -15 -9 0 -5 -9 -13 -21 -16 -11 -4 -18 -12 -16 -18 4 -13 -36 -57
-53 -57 -5 0 -10 -4 -10 -9 0 -13 -56 -71 -70 -71 -6 0 -9 -4 -6 -8 3 -5 -6
-15 -19 -22 -14 -7 -25 -19 -25 -26 0 -7 -5 -16 -12 -20 -8 -5 -9 -2 -4 12 7
18 6 18 -12 -1 -10 -11 -15 -21 -11 -23 4 -2 -7 -17 -26 -34 -19 -16 -32 -34
-29 -39 3 -5 -1 -6 -9 -3 -8 3 -20 -3 -28 -13 -12 -16 -12 -17 2 -8 8 6 6 3
-4 -5 -11 -8 -30 -25 -44 -37 -13 -13 -26 -23 -28 -23 -2 0 -36 -32 -75 -70
-41 -42 -75 -68 -82 -64 -7 5 -8 3 -3 -5 8 -13 -38 -62 -70 -74 -9 -4 -13 -11
-10 -17 3 -5 1 -10 -5 -10 -17 0 -100 -83 -93 -93 3 -6 2 -7 -4 -4 -6 4 -29
-13 -51 -36 -63 -66 -115 -107 -136 -107 -14 0 -9 8 20 29 21 16 273 262 559
545 286 284 525 516 530 516 6 0 60 -31 120 -68 521 -325 1042 -482 1600 -482
425 0 813 75 1185 227 127 52 401 191 523 266 384 235 747 552 1051 917 174
209 162 200 248 200 81 0 108 15 108 61 0 37 -11 42 -98 50 l-72 6 -223 219
c-295 292 -483 443 -827 663 -40 26 -35 24 33 -8 27 -12 51 -20 54 -17 3 3 14
-5 25 -17 11 -12 17 -15 13 -7 -4 8 2 4 14 -10 16 -21 22 -23 33 -12 11 11 10
12 -4 7 -11 -4 -18 -2 -18 4 0 6 4 11 10 11 5 0 17 17 25 37 12 29 13 44 6 61
-14 31 -14 35 4 28 24 -9 18 2 -20 35 -19 17 -32 35 -29 40 3 5 2 8 -3 7 -4
-2 -33 21 -63 50 -118 113 5 33 195 -127 129 -110 265 -242 358 -349 96 -111
109 -119 143 -97 45 29 37 43 -140 239 -64 71 -234 232 -347 329 -24 20 -38
37 -31 37 7 0 15 -7 18 -15 8 -19 58 -20 74 -1 6 8 18 12 26 9 8 -3 14 0 14 6
0 6 9 11 20 11 11 0 20 5 20 10 0 6 10 10 21 10 18 0 20 5 17 28 -7 37 -12 56
-18 62 -3 3 -41 48 -84 100 -87 104 -73 94 102 -75z m-1968 81 c170 -23 381
-74 554 -133 159 -54 320 -122 312 -130 -2 -3 -15 1 -28 8 -23 12 -80 27 -128
33 -14 2 -48 11 -75 21 -28 9 -63 19 -80 21 -53 9 -60 10 -78 18 -9 5 -29 6
-42 4 -14 -3 -25 -1 -25 3 0 5 -8 9 -18 9 -10 0 -24 6 -31 13 -11 10 -12 9 -6
-3 7 -12 6 -13 -6 -3 -8 7 -24 12 -34 12 -38 0 -94 9 -107 17 -14 9 -41 13
-278 44 -214 29 -578 14 -795 -31 -57 -12 -91 -15 -93 -9 -5 13 -55 13 -68 0
-5 -5 -24 -10 -41 -12 -25 -2 -30 -5 -21 -15 13 -16 -4 -17 -20 -1 -6 6 -15 8
-19 4 -4 -4 -1 -11 7 -16 13 -8 12 -10 -2 -10 -10 0 -18 5 -18 10 0 6 -5 10
-11 10 -6 0 -9 -7 -5 -15 3 -8 1 -15 -4 -15 -6 0 -10 7 -10 15 0 13 -4 12 -22
-5 -23 -21 -44 -27 -33 -10 3 6 4 10 1 10 -14 0 -62 -27 -73 -40 -9 -10 -12
-11 -13 -2 0 6 -4 12 -9 12 -5 0 -7 -10 -4 -22 5 -21 4 -22 -8 -6 -22 28 -65
11 -61 -23 2 -13 -97 -48 -104 -37 -5 7 -11 5 -20 -6 -7 -11 -18 -15 -25 -10
-8 5 -10 3 -4 -6 6 -10 4 -12 -9 -7 -9 4 -15 3 -11 -2 3 -5 -8 -12 -25 -16
-16 -4 -32 -11 -35 -16 -4 -5 -15 -9 -26 -9 -10 0 -19 -4 -19 -10 0 -5 -3 -9
-7 -8 -17 4 -82 -26 -76 -35 3 -6 1 -7 -5 -3 -7 4 -29 -2 -50 -13 -20 -11 -62
-30 -92 -42 -30 -13 -73 -33 -95 -46 -22 -13 -59 -33 -82 -44 -24 -11 -43 -24
-43 -28 0 -5 -11 -12 -25 -15 -13 -3 -73 -38 -132 -78 -60 -39 -125 -82 -145
-96 -21 -14 -38 -29 -38 -34 0 -5 -4 -7 -9 -4 -5 3 -12 -1 -15 -9 -3 -8 -9
-14 -13 -13 -4 2 -17 -5 -28 -15 -11 -10 -40 -33 -63 -52 -24 -19 -38 -35 -31
-35 8 0 2 -8 -11 -17 -14 -10 -36 -30 -50 -45 -13 -15 -28 -28 -33 -28 -5 0
-31 -24 -59 -52 -27 -29 -54 -52 -60 -50 -5 1 -7 -1 -4 -6 6 -11 -58 -72 -75
-72 -7 0 -9 -3 -6 -6 4 -4 -2 -14 -12 -23 -10 -9 -23 -26 -30 -39 -7 -12 -17
-20 -22 -16 -6 3 -13 -3 -16 -15 -3 -12 -9 -21 -14 -21 -5 0 -19 -15 -30 -32
-12 -18 -18 -25 -15 -15 3 11 2 16 -4 12 -6 -3 -10 -13 -10 -21 0 -8 -4 -14
-9 -14 -21 0 -7 -52 22 -76 16 -13 27 -27 24 -31 -11 -10 -55 6 -85 32 -17 14
-35 25 -41 25 -6 0 -14 12 -17 26 -6 24 11 44 187 218 357 352 663 577 1082
796 499 260 921 385 1392 414 108 7 408 -4 515 -18z m2055 -4 c-2 -9 -4 -18
-4 -20 -1 -2 -6 0 -11 3 -8 5 -8 11 -1 19 6 7 7 17 3 21 -4 5 -2 5 5 2 6 -4
10 -15 8 -25z m-1068 -34 c-3 -8 -6 -5 -6 6 -1 11 2 17 5 13 3 -3 4 -12 1 -19z
m-1967 -77 c-8 -5 -31 -12 -50 -15 -35 -7 -35 -7 -10 7 14 8 36 15 50 16 19 0
21 -2 10 -8z m2370 6 c0 -2 -12 -14 -27 -28 l-28 -24 24 28 c23 25 31 32 31
24z m-82 -97 c-27 -34 -59 -46 -85 -31 -15 9 -13 10 14 11 19 0 43 10 60 25
37 32 39 31 11 -5z m649 24 c-3 -3 -12 -4 -19 -1 -8 3 -5 6 6 6 11 1 17 -2 13
-5z m-3317 -44 c0 -5 -2 -10 -4 -10 -3 0 -8 5 -11 10 -3 6 -1 10 4 10 6 0 11
-4 11 -10z m2887 -386 c203 -132 373 -262 523 -398 118 -108 258 -243 323
-313 l69 -73 -22 -35 c-12 -19 -26 -35 -32 -35 -5 0 -2 7 6 16 20 19 21 31 2
14 -13 -10 -14 -7 -11 17 2 15 2 22 -1 15 -3 -6 -10 -10 -14 -7 -5 3 -16 -8
-25 -24 -18 -36 -43 -51 -82 -50 l-28 1 29 8 c36 11 66 38 66 60 0 10 6 17 14
16 16 -1 22 18 6 20 -5 1 -13 3 -17 4 -5 1 -11 2 -15 1 -4 0 -5 6 -1 14 5 13
7 13 19 -2 8 -11 13 -13 14 -5 0 7 -15 21 -32 32 -18 11 -31 23 -29 26 4 8
-218 222 -224 215 -3 -2 -5 1 -5 8 0 13 -24 41 -35 41 -4 0 -23 17 -43 38 -20
21 -77 69 -127 106 -49 37 -99 75 -110 84 -11 9 -35 27 -54 40 -18 13 -40 30
-48 38 -8 8 -17 14 -21 14 -4 0 -20 11 -36 25 -16 14 -34 25 -39 25 -6 0 -17
7 -26 15 -9 9 -44 34 -79 55 -35 22 -60 44 -57 49 3 5 0 13 -6 17 -8 4 -9 3
-5 -4 4 -7 3 -12 -3 -12 -6 0 -16 10 -22 23 -11 19 -34 40 -49 42 -9 2 -110
67 -110 72 0 10 204 -106 337 -193z m-1845 -215 c87 -18 157 -67 204 -144 12
-20 3 -14 -25 18 -23 26 -54 50 -67 53 -13 3 -24 9 -24 13 0 19 -83 34 -162
29 -70 -5 -92 -11 -143 -40 -33 -19 -69 -48 -80 -65 -11 -18 -26 -34 -34 -38
-18 -7 16 46 59 91 38 41 96 72 153 84 59 11 60 11 119 -1z m37 -249 c23 -12
47 -20 54 -19 7 1 17 1 23 0 12 -1 89 -71 78 -71 -3 0 -1 -7 6 -15 7 -8 9 -15
5 -15 -4 0 -2 -7 5 -15 11 -13 15 -13 22 -3 5 8 7 4 5 -12 -2 -14 -10 -25 -18
-25 -8 0 -13 6 -11 13 1 8 -2 11 -7 8 -11 -7 -2 -46 11 -46 5 0 6 -5 3 -10 -4
-6 -11 -7 -17 -4 -7 4 -8 2 -4 -4 7 -11 -63 -97 -71 -88 -3 3 -14 -3 -25 -13
-31 -30 -100 -44 -184 -39 -58 4 -79 9 -86 22 -5 9 -13 14 -18 11 -14 -9 -52
14 -44 27 4 6 3 8 -3 5 -11 -7 -45 21 -81 67 -23 30 -30 62 -10 50 7 -4 8 -3
4 5 -4 6 -11 9 -16 6 -8 -5 -20 27 -20 55 0 13 1 13 10 0 8 -12 10 -12 10 -1
0 8 3 12 6 9 3 -3 29 16 57 43 29 27 60 49 69 49 9 0 23 6 30 14 8 8 23 16 34
19 36 11 140 -3 183 -23z m-349 -64 c0 -2 -8 -10 -17 -17 -16 -13 -17 -12 -4
4 13 16 21 21 21 13z m560 -46 c0 -5 -5 -10 -11 -10 -5 0 -7 5 -4 10 3 6 8 10
11 10 2 0 4 -4 4 -10z m-1875 -30 c-17 -6 -14 -9 18 -15 20 -4 37 -11 37 -16
0 -5 9 -9 20 -9 30 0 40 -39 45 -176 2 -45 8 -91 14 -103 8 -14 8 -21 1 -21
-16 0 -13 -181 4 -205 7 -11 16 -54 19 -95 9 -116 27 -180 50 -180 15 0 18 -5
12 -29 -9 -43 3 -81 27 -81 16 0 19 -5 14 -24 -8 -32 13 -79 32 -71 9 3 12 0
9 -9 -3 -8 -3 -17 1 -21 4 -3 11 -25 17 -48 6 -27 18 -45 31 -51 11 -5 26 -22
33 -37 7 -15 20 -30 29 -32 18 -5 -21 -11 -47 -8 -7 2 -10 -2 -6 -8 3 -6 17
-11 31 -11 16 0 23 -4 18 -11 -4 -8 1 -9 16 -4 13 4 20 3 17 -2 -17 -28 381
-170 623 -223 377 -81 838 -64 1210 46 119 35 200 63 230 79 14 7 44 19 68 26
24 7 38 15 31 19 -8 6 -8 9 0 14 6 4 11 16 11 27 0 11 5 17 10 14 6 -4 9 -14
8 -22 -2 -9 3 -18 10 -20 7 -3 10 1 6 10 -7 18 30 107 45 107 5 0 12 14 16 30
4 17 15 35 25 40 10 5 21 21 24 36 4 14 10 24 13 20 10 -10 53 43 47 59 -7 18
23 68 35 61 5 -3 11 13 15 35 4 23 14 55 23 72 12 24 13 35 4 49 -17 28 -13
48 10 48 18 0 20 5 18 44 -2 27 3 53 13 68 16 23 11 52 -8 48 -5 -1 -10 4 -13
11 -2 7 1 9 8 5 8 -6 10 3 8 29 -4 32 -2 36 14 32 11 -3 19 -1 19 4 0 5 -6 9
-14 9 -22 0 -24 33 -4 55 10 10 16 25 14 32 -7 17 14 63 28 63 7 0 6 3 -1 8
-7 4 -15 24 -19 42 -4 24 -3 31 4 21 8 -10 11 -6 17 18 4 17 10 29 13 27 4 -2
7 6 7 19 0 13 -2 22 -5 20 -4 -2 -6 12 -6 32 0 20 2 31 4 25 7 -23 21 -11 28
23 4 24 15 41 35 52 31 19 36 29 17 36 -7 3 20 6 61 6 71 1 123 -9 166 -32 11
-6 49 -26 85 -44 36 -19 70 -40 75 -47 6 -7 17 -15 25 -19 29 -13 54 -33 104
-80 28 -27 62 -55 76 -62 24 -12 87 -78 91 -93 0 -4 5 -6 10 -5 8 3 13 -11 10
-30 -1 -4 6 -10 14 -13 8 -4 15 -10 15 -16 0 -5 7 -16 15 -25 14 -14 30 -2
157 126 77 78 142 140 144 138 2 -2 -5 -15 -17 -28 -11 -13 -57 -67 -102 -119
-146 -170 -345 -361 -494 -474 -29 -22 -49 -44 -46 -49 3 -6 1 -7 -5 -3 -7 4
-12 2 -12 -4 0 -6 -4 -9 -9 -6 -12 8 -86 -53 -85 -70 1 -8 -3 -11 -8 -8 -5 3
-26 -5 -46 -18 -166 -110 -200 -130 -347 -211 -445 -244 -913 -367 -1400 -367
-423 1 -831 103 -1260 317 -71 36 -141 73 -156 84 -15 10 -30 19 -33 19 -6 0
-64 37 -256 163 -273 179 -522 391 -698 597 -59 68 -117 135 -129 149 -13 13
-23 28 -23 32 0 18 16 8 38 -25 13 -18 69 -78 125 -132 116 -112 180 -169 155
-139 -20 24 -19 40 7 80 23 35 36 46 47 39 5 -3 8 -2 7 3 -3 19 2 34 9 29 5
-3 19 8 31 24 13 19 31 30 45 30 15 0 26 7 29 19 4 15 1 18 -12 14 -9 -4 -13
-3 -9 1 3 4 24 14 45 21 21 8 37 18 36 24 -2 6 14 18 34 28 21 9 45 25 53 33
9 9 38 27 63 39 26 13 47 28 47 34 0 12 46 32 100 44 14 3 32 11 40 18 8 6 27
11 43 10 17 -1 27 3 27 12 0 8 11 13 28 12 24 0 24 -1 7 -9z m2982 -82 c-2
-18 -4 -4 -4 32 0 36 2 50 4 33 2 -18 2 -48 0 -65z m-10 -95 c-5 -52 -4 -56 9
-39 15 21 18 18 8 -8 -3 -9 -13 -16 -21 -16 -12 0 -14 8 -9 38 3 20 6 47 6 60
0 12 3 22 6 22 4 0 4 -26 1 -57z m-20 -105 c-3 -7 -5 -2 -5 12 0 14 2 19 5 13
2 -7 2 -19 0 -25z m-21 -89 c-9 -28 -13 -57 -9 -63 4 -8 3 -8 -6 0 -9 9 -8 25
6 72 10 34 19 58 21 53 2 -5 -4 -33 -12 -62z m-2694 -64 c3 -13 1 -22 -3 -19
-9 5 -13 44 -5 44 2 0 6 -11 8 -25z m2659 -32 c-12 -20 -14 -14 -5 12 4 9 9
14 11 11 3 -2 0 -13 -6 -23z m-4260 0 c13 -16 12 -17 -3 -4 -10 7 -18 15 -18
17 0 8 8 3 21 -13z m664 7 c3 -5 1 -10 -4 -10 -6 0 -11 5 -11 10 0 6 2 10 4
10 3 0 8 -4 11 -10z m5225 -4 c0 -2 -8 -10 -17 -17 -16 -13 -17 -12 -4 4 13
16 21 21 21 13z m-1839 -49 c-5 -14 -15 -28 -21 -32 -5 -3 -3 10 7 29 19 40
29 42 14 3z m184 -22 c-10 -19 -19 -34 -22 -32 -2 3 4 21 13 41 10 19 19 34
22 32 2 -3 -4 -21 -13 -41z m-2581 -21 c3 -8 2 -12 -4 -9 -6 3 -10 10 -10 16
0 14 7 11 14 -7z m4156 3 c0 -2 -12 -14 -27 -28 l-28 -24 24 28 c23 25 31 32
31 24z m-1799 -31 c-7 -8 -9 -21 -5 -28 4 -7 4 -10 -1 -6 -4 4 -15 3 -22 -4
-8 -6 -5 5 7 26 13 20 25 35 28 32 3 -3 -1 -12 -7 -20z m196 -16 c-1 -12 -5
-16 -10 -11 -5 5 -6 14 -3 20 11 16 15 13 13 -9z m-2516 -32 c59 -117 235
-311 367 -408 207 -151 428 -243 671 -279 118 -18 330 -14 461 8 377 65 719
283 930 594 29 42 54 77 57 77 2 0 -10 -27 -29 -60 -18 -33 -36 -60 -40 -60
-5 0 -8 -6 -8 -14 0 -8 -13 -28 -30 -46 -16 -18 -30 -35 -30 -39 0 -9 -177
-179 -226 -216 -121 -94 -249 -159 -424 -218 -145 -48 -252 -68 -406 -74 -281
-12 -536 57 -823 222 -53 30 -223 174 -289 243 -71 76 -212 279 -212 307 0 15
12 0 31 -37z m-1082 -74 c4 3 7 -4 7 -14 0 -13 -12 -6 -46 28 -25 26 -52 56
-60 67 -7 11 10 -4 39 -33 29 -29 56 -50 60 -48z m-439 64 c0 -6 -6 -5 -15 2
-8 7 -15 14 -15 16 0 2 7 1 15 -2 8 -4 15 -11 15 -16z m5210 19 c0 -1 -24 -25
-52 -52 l-53 -50 50 53 c46 48 55 57 55 49z m338 -26 c-13 -15 -25 -27 -27
-25 -2 2 1 10 7 17 7 8 8 18 4 22 -4 5 -1 5 6 1 6 -4 12 -2 12 3 0 6 5 11 11
11 6 0 0 -13 -13 -29z m-1751 -6 c0 -8 -4 -12 -9 -9 -5 3 -6 10 -3 15 9 13 12
11 12 -6z m1626 -40 c-7 -21 -12 -19 -10 4 0 11 5 18 9 15 4 -3 5 -11 1 -19z
m-1640 -2 c-3 -7 -9 -13 -14 -13 -11 0 -54 -42 -54 -52 0 -5 -4 -8 -8 -7 -5 0
-41 -31 -80 -70 -39 -39 -74 -71 -77 -71 -4 0 43 51 104 113 102 103 142 135
129 100z m1642 -81 l-49 -47 44 51 c25 27 47 49 50 47 2 -2 -18 -25 -45 -51z
m-325 45 c0 -1 -22 -25 -50 -52 -27 -27 -50 -46 -50 -43 0 6 92 98 98 98 1 0
2 -1 2 -3z m-4619 -24 c13 -16 12 -17 -3 -4 -17 13 -22 21 -14 21 2 0 10 -8
17 -17z m4874 -23 c3 -6 -1 -7 -9 -4 -18 7 -21 14 -7 14 6 0 13 -4 16 -10z
m-4830 -10 c3 -6 -1 -7 -9 -4 -18 7 -21 14 -7 14 6 0 13 -4 16 -10z m1420 -70
c10 -11 16 -20 13 -20 -3 0 -13 9 -23 20 -10 11 -16 20 -13 20 3 0 13 -9 23
-20z m3395 3 c0 -5 -5 -15 -10 -23 -7 -12 -9 -10 -7 8 1 19 17 33 17 15z
m-390 -17 c0 -7 -147 -126 -155 -126 -3 0 28 29 70 65 74 62 85 70 85 61z
m346 -44 c-17 -16 -18 -16 -5 5 7 12 15 20 18 17 3 -2 -3 -12 -13 -22z m319
-2 c3 -5 1 -10 -4 -10 -6 0 -11 5 -11 10 0 6 2 10 4 10 3 0 8 -4 11 -10z
m-380 -20 c-4 -6 -11 -8 -16 -5 -5 4 -9 1 -9 -6 0 -7 -3 -10 -6 -6 -9 9 5 27
22 27 8 0 12 -5 9 -10z m330 -38 c-11 -9 -15 -11 -8 -3 6 7 9 21 6 30 -5 13
-3 14 8 3 11 -10 10 -15 -6 -30z m-402 -19 c-3 -7 -6 -13 -8 -13 -2 0 -5 6 -8
13 -3 8 1 14 8 14 7 0 11 -6 8 -14z m366 4 c-2 -1 -13 -9 -24 -17 -19 -14 -19
-14 -6 3 7 9 18 17 24 17 6 0 8 -1 6 -3z m-320 -9 c-2 -2 -17 -14 -34 -28
l-30 -25 24 28 c14 15 29 27 34 27 6 0 8 -1 6 -2z m-433 -16 c-2 -4 -26 -22
-53 -41 -33 -23 -40 -25 -21 -8 15 14 24 28 20 33 -4 4 -2 4 4 1 6 -4 20 0 30
8 22 16 27 18 20 7z m744 -17 c-13 -14 -25 -23 -28 -21 -5 6 31 44 42 45 5 1
-1 -10 -14 -24z m-4630 -64 c5 -17 5 -29 0 -26 -14 9 -18 -19 -3 -30 11 -8 8
-15 -12 -37 -14 -15 -25 -34 -25 -43 0 -8 -9 -15 -19 -15 -23 0 -36 -16 -21
-25 18 -11 10 -26 -12 -25 -38 3 -50 1 -43 -10 3 -5 0 -10 -8 -10 -18 0 -59
-48 -52 -60 4 -6 0 -10 -7 -10 -22 0 -71 -59 -64 -77 5 -13 4 -14 -9 -3 -8 7
-12 17 -8 24 3 6 2 7 -3 3 -5 -5 -9 -12 -9 -15 0 -11 -91 -92 -103 -92 -6 0
-16 -9 -22 -20 -6 -11 -16 -17 -22 -14 -6 4 -8 3 -4 -4 3 -6 -10 -23 -31 -39
-45 -33 -63 -55 -56 -66 2 -4 1 -7 -4 -6 -21 4 -32 -2 -38 -20 -3 -10 -17 -22
-30 -25 -14 -4 -25 -11 -25 -17 0 -6 6 -7 13 -3 6 4 -28 -31 -77 -79 -49 -47
-93 -84 -98 -81 -5 3 -7 0 -6 -7 3 -14 -56 -48 -84 -49 -10 0 -23 9 -30 20 -7
11 -19 20 -26 20 -9 0 -11 7 -7 20 5 16 2 20 -16 20 -17 0 -19 -3 -10 -14 7
-8 8 -17 3 -20 -6 -3 -12 3 -15 14 -4 17 -9 18 -41 8 -27 -9 -35 -16 -31 -28
5 -17 -5 -24 -72 -51 -17 -7 -30 -16 -27 -20 2 -4 -4 -9 -14 -11 -11 -3 -33 6
-52 22 l-33 27 367 364 c202 200 380 372 395 381 26 17 27 17 69 -20 23 -21
42 -43 42 -49 0 -16 -35 -35 -45 -25 -5 4 -5 -2 -2 -13 7 -20 7 -20 -8 0 -15
19 -15 19 -36 -1 -11 -11 -21 -30 -22 -41 -1 -14 -6 -19 -18 -16 -18 5 -40
-13 -72 -57 -10 -14 -15 -19 -12 -12 3 6 1 12 -4 12 -14 0 -14 -6 -1 -30 8
-15 7 -18 -2 -15 -18 6 -81 -53 -72 -67 4 -7 3 -8 -4 -4 -16 10 -74 -56 -59
-67 8 -5 7 -7 -3 -6 -31 3 -40 -2 -40 -20 0 -14 -10 -22 -32 -27 -18 -4 -36
-7 -40 -6 -3 1 -5 -12 -3 -28 4 -30 -8 -41 -19 -17 -3 6 -3 2 -1 -10 3 -12 1
-24 -5 -28 -14 -9 -13 -27 3 -20 6 4 -4 -8 -23 -26 -22 -21 -34 -41 -32 -54 4
-25 38 -55 62 -55 10 0 94 75 187 168 253 252 615 605 641 624 14 12 22 28 22
50 0 37 7 33 20 -11z m4250 33 c0 -8 -19 -13 -24 -6 -3 5 1 9 9 9 8 0 15 -2
15 -3z m-4665 -14 c3 -5 1 -10 -4 -10 -6 0 -11 5 -11 10 0 6 2 10 4 10 3 0 8
-4 11 -10z m4923 -19 c-7 -12 -19 -21 -26 -21 -9 0 -6 9 9 24 28 29 36 27 17
-3z m-338 3 c0 -8 -4 -12 -10 -9 -5 3 -10 1 -10 -6 0 -7 -3 -10 -6 -6 -9 9 3
37 16 37 5 0 10 -7 10 -16z m-415 -20 c-16 -14 -39 -30 -50 -35 -11 -6 -8 0 8
11 15 12 25 26 22 31 -4 5 0 6 8 3 8 -3 18 -1 22 5 3 6 9 11 13 11 4 -1 -6
-12 -23 -26z m802 4 c-3 -8 -6 -5 -6 6 -1 11 2 17 5 13 3 -3 4 -12 1 -19z
m-4922 -10 c-3 -12 2 -18 16 -18 13 0 19 -6 17 -17 -2 -13 4 -18 22 -17 19 1
26 -4 26 -17 0 -30 -17 -23 -68 28 -53 52 -58 62 -29 60 13 -1 18 -7 16 -19z
m4570 12 c-3 -5 -12 -10 -18 -10 -7 0 -6 4 3 10 19 12 23 12 15 0z m-35 -31
c0 -5 -4 -8 -9 -5 -5 4 -12 0 -14 -6 -3 -8 -6 -6 -6 5 -1 9 6 17 14 17 8 0 15
-5 15 -11z m-4390 -14 c-7 -8 -18 -15 -24 -15 -6 0 -2 7 8 15 25 19 32 19 16
0z m4685 -15 c3 -6 -1 -7 -9 -4 -18 7 -21 14 -7 14 6 0 13 -4 16 -10z m-4445
-20 c0 -5 -4 -10 -10 -10 -5 0 -10 5 -10 10 0 6 5 10 10 10 6 0 10 -4 10 -10z
m170 -10 c0 -5 -2 -10 -4 -10 -3 0 -8 5 -11 10 -3 6 -1 10 4 10 6 0 11 -4 11
-10z m3435 -6 c-36 -28 -61 -36 -30 -10 17 14 35 25 40 25 6 0 1 -7 -10 -15z
m-3395 -24 c0 -5 -2 -10 -4 -10 -3 0 -8 5 -11 10 -3 6 -1 10 4 10 6 0 11 -4
11 -10z m3756 -5 c-3 -8 -1 -15 3 -15 5 0 12 6 14 13 3 7 6 5 6 -5 1 -12 -6
-18 -19 -18 -13 0 -18 -5 -14 -15 5 -12 10 -13 20 -4 21 17 17 5 -4 -14 -13
-12 -19 -13 -20 -5 -2 23 -7 43 -16 57 -6 9 -5 12 2 7 6 -3 13 -2 17 4 10 15
18 12 11 -5z m47 -10 c-7 -21 -12 -19 -10 4 0 11 5 18 9 15 4 -3 5 -11 1 -19z
m37 21 c0 -3 -4 -8 -10 -11 -5 -3 -10 -1 -10 4 0 6 5 11 10 11 6 0 10 -2 10
-4z m-3754 -67 c3 -6 -5 -3 -20 6 -14 10 -26 19 -26 22 0 7 39 -17 46 -28z
m3214 27 c0 -3 -4 -8 -10 -11 -5 -3 -10 -1 -10 4 0 6 5 11 10 11 6 0 10 -2 10
-4z m890 1 c0 -2 -19 -21 -42 -42 l-43 -40 40 43 c36 39 45 47 45 39z m-467
-23 c3 -4 -5 -15 -18 -26 -14 -11 -23 -23 -20 -27 2 -5 -4 -16 -14 -25 -15
-13 -18 -14 -18 -1 0 8 4 12 8 9 4 -2 10 0 13 5 4 5 2 12 -4 16 -6 4 -3 15 7
30 18 24 34 31 46 19z m-3592 -31 c13 -16 12 -17 -3 -4 -17 13 -22 21 -14 21
2 0 10 -8 17 -17z m3948 0 c-6 -7 -15 -10 -20 -7 -13 8 -3 21 15 21 12 0 13
-4 5 -14z m-349 3 c0 -2 -8 -10 -17 -17 -16 -13 -17 -12 -4 4 13 16 21 21 21
13z m-1113 -12 c-3 -3 -12 -4 -19 -1 -8 3 -5 6 6 6 11 1 17 -2 13 -5z m-2416
-31 c13 -17 13 -17 -6 -3 -11 8 -22 16 -24 17 -2 2 0 3 6 3 6 0 17 -8 24 -17z
m3899 8 c0 -6 -4 -12 -8 -15 -5 -3 -9 1 -9 9 0 8 4 15 9 15 4 0 8 -4 8 -9z
m-995 -31 c-3 -5 -12 -10 -18 -10 -7 0 -6 4 3 10 19 12 23 12 15 0z m535 -4
c0 -2 -7 -9 -15 -16 -12 -10 -15 -10 -15 4 0 9 7 16 15 16 8 0 15 -2 15 -4z
m-590 -21 c0 -7 -81 -47 -86 -42 -3 2 15 14 38 25 49 24 48 24 48 17z m531
-28 c-10 -9 -11 -8 -5 6 3 10 9 15 12 12 3 -3 0 -11 -7 -18z m-31 3 c-8 -5
-19 -10 -25 -10 -5 0 -3 5 5 10 8 5 20 10 25 10 6 0 3 -5 -5 -10z m470 -4 c0
-2 -8 -10 -17 -17 -16 -13 -17 -12 -4 4 13 16 21 21 21 13z m-483 -30 c-27
-22 -62 -32 -51 -14 3 5 10 6 15 3 5 -4 12 1 15 9 3 9 10 14 14 11 5 -3 11 -1
15 5 3 5 9 10 13 10 4 -1 -6 -11 -21 -24z m443 -1 c0 0 -23 -23 -52 -50 -29
-28 -45 -41 -37 -30 7 11 26 30 42 43 15 13 25 27 22 31 -2 4 2 8 10 8 8 0 15
-1 15 -2z m-1150 -50 c-14 -8 -32 -14 -40 -14 -8 0 -1 6 15 14 40 18 57 18 25
0z m605 -15 c-10 -11 -21 -18 -23 -15 -3 3 3 12 14 20 27 20 30 18 9 -5z
m-2795 -35 c33 -19 21 -19 -21 0 -19 8 -27 14 -19 14 8 0 26 -6 40 -14z m2760
11 c0 -2 -7 -7 -16 -10 -8 -3 -12 -2 -9 4 6 10 25 14 25 6z m448 -33 c-12 -12
-26 -23 -32 -23 -6 1 -1 9 11 19 12 10 20 21 18 23 -3 3 2 5 10 5 12 0 10 -6
-7 -24z m-493 7 c-3 -5 -16 -15 -28 -21 -21 -10 -21 -9 2 10 25 23 36 27 26
11z m-82 -50 c-25 -21 -103 -59 -107 -52 -3 5 0 9 7 9 7 0 29 10 50 23 26 15
36 28 32 38 -5 12 -3 13 10 2 9 -7 12 -16 8 -20z m-3363 -14 c0 -14 -7 -31
-15 -40 -8 -8 -15 -20 -15 -27 0 -7 -3 -10 -6 -6 -7 6 -28 -11 -34 -28 -2 -5
-14 -18 -27 -28 -13 -10 -21 -23 -17 -28 3 -5 1 -8 -5 -7 -5 2 -27 -15 -49
-37 -22 -22 -60 -59 -86 -82 -25 -24 -43 -43 -39 -43 5 0 -7 -8 -25 -17 -19
-9 -35 -26 -38 -40 -4 -16 -9 -21 -14 -13 -5 8 -10 6 -15 -7 -5 -10 -8 -21 -7
-24 1 -4 -7 -6 -16 -5 -9 0 -19 -3 -21 -9 -3 -5 -13 -19 -23 -29 -10 -11 -18
-23 -18 -28 0 -4 -9 -8 -21 -8 -11 0 -17 -4 -14 -10 3 -5 -2 -10 -12 -10 -14
0 -15 -2 -4 -9 11 -7 4 -16 -27 -39 -23 -16 -38 -33 -34 -37 4 -5 2 -5 -4 -2
-7 4 -47 -27 -90 -68 -127 -121 -284 -255 -299 -255 -12 0 -45 26 -45 35 0 2
16 1 35 -2 34 -5 39 -1 222 179 340 333 630 612 705 677 20 18 40 41 43 52 9
26 15 24 15 -5z m3880 9 c-7 -9 -15 -13 -19 -10 -3 3 1 10 9 15 21 14 24 12
10 -5z m-4750 -19 c0 -2 -8 -10 -17 -17 -16 -13 -17 -12 -4 4 13 16 21 21 21
13z m4704 -5 c3 -5 -28 -34 -69 -65 -41 -31 -75 -53 -75 -49 0 5 -4 3 -8 -2
-10 -15 -72 -58 -72 -50 0 10 33 40 44 40 6 1 10 7 8 15 -2 8 -1 12 3 8 10
-10 83 30 100 55 8 12 15 18 15 14 0 -4 11 0 25 9 14 9 22 20 19 25 -3 5 -3 9
0 9 3 0 7 -4 10 -9z m-584 -35 c0 -2 -7 -7 -16 -10 -8 -3 -12 -2 -9 4 6 10 25
14 25 6z m-4210 -17 c0 -5 -4 -7 -10 -4 -13 8 -13 -7 0 -23 5 -7 3 -6 -6 2 -9
8 -13 19 -10 25 9 14 26 14 26 0z m1375 -49 c3 -6 -1 -7 -9 -4 -18 7 -21 14
-7 14 6 0 13 -4 16 -10z m2640 -30 c-3 -5 -12 -10 -18 -10 -7 0 -6 4 3 10 19
12 23 12 15 0z m-85 -34 c0 -2 -7 -7 -16 -10 -8 -3 -12 -2 -9 4 6 10 25 14 25
6z m-2263 -62 c-3 -3 -12 -4 -19 -1 -8 3 -5 6 6 6 11 1 17 -2 13 -5z m2078
-14 c-3 -5 -12 -10 -18 -10 -7 0 -6 4 3 10 19 12 23 12 15 0z m-2015 -10 c18
-12 2 -12 -25 0 -13 6 -15 9 -5 9 8 0 22 -4 30 -9z m1965 -10 c-26 -11 -45
-12 -45 -2 0 4 15 8 33 9 26 1 28 0 12 -7z m-1820 -40 c13 -6 15 -9 5 -9 -8 0
-22 4 -30 9 -18 12 -2 12 25 0z m1685 0 c-8 -5 -19 -10 -25 -10 -5 0 -3 5 5
10 8 5 20 10 25 10 6 0 3 -5 -5 -10z m-2430 -30 c8 -5 12 -11 10 -14 -3 -2
-14 2 -24 10 -22 15 -10 19 14 4z m837 4 c-3 -3 -12 -4 -19 -1 -8 3 -5 6 6 6
11 1 17 -2 13 -5z m1506 -1 c-7 -2 -19 -2 -25 0 -7 3 -2 5 12 5 14 0 19 -2 13
-5z m-58 -13 c-27 -12 -43 -12 -25 0 8 5 22 9 30 9 10 0 8 -3 -5 -9z m-2130
-75 c78 -45 63 -45 -22 0 -36 19 -60 35 -52 35 8 0 41 -16 74 -35z m1792 9
c-3 -3 -12 -4 -19 -1 -8 3 -5 6 6 6 11 1 17 -2 13 -5z m-590 -10 c-3 -3 -12
-4 -19 -1 -8 3 -5 6 6 6 11 1 17 -2 13 -5z m461 -1 c-10 -2 -26 -2 -35 0 -10
3 -2 5 17 5 19 0 27 -2 18 -5z m-250 -10 c-27 -2 -69 -2 -95 0 -27 2 -5 3 47
3 52 0 74 -1 48 -3z m145 0 c-13 -2 -33 -2 -45 0 -13 2 -3 4 22 4 25 0 35 -2
23 -4z m-1466 -20 c-4 -3 1 -12 11 -20 9 -8 13 -13 7 -10 -5 2 -19 7 -30 11
-16 6 -17 9 -5 16 17 11 26 13 17 3z m2673 -8 c0 -7 -30 -13 -34 -7 -3 4 4 9
15 9 10 1 19 0 19 -2z m-50 -20 c0 -2 -6 -5 -13 -8 -8 -3 -14 1 -14 8 0 7 6
11 14 8 7 -3 13 -6 13 -8z m-4230 -15 c0 -5 -2 -10 -4 -10 -3 0 -8 5 -11 10
-3 6 -1 10 4 10 6 0 11 -4 11 -10z m1694 -5 c20 -8 36 -17 36 -20 0 -4 -80 24
-89 32 -11 8 20 1 53 -12z m-1671 -37 c-10 -40 -34 -58 -74 -58 -21 0 -41 4
-44 10 -4 6 6 7 25 4 35 -7 70 17 70 48 0 10 6 18 14 18 10 0 12 -7 9 -22z
m1775 -6 c2 -7 -2 -10 -12 -6 -9 3 -16 11 -16 16 0 13 23 5 28 -10z m47 -12
c19 -8 19 -9 -2 -9 -12 -1 -25 4 -28 9 -7 12 2 12 30 0z m75 -20 c0 -5 9 -10
21 -10 11 0 27 -7 36 -15 14 -14 13 -15 -13 -9 -38 9 -94 33 -94 39 0 3 11 5
25 5 14 0 25 -4 25 -10z m-467 -14 c4 -10 1 -13 -9 -9 -15 6 -19 23 -5 23 5 0
11 -7 14 -14z m-330 -13 c-13 -2 -33 -2 -45 0 -13 2 -3 4 22 4 25 0 35 -2 23
-4z m2777 -3 c-8 -5 -22 -9 -30 -9 -10 0 -8 3 5 9 27 12 43 12 25 0z m-1859
-15 c34 -16 34 -16 4 -10 -16 4 -34 11 -39 16 -14 13 -3 11 35 -6z m-531 -9
c0 -3 -4 -8 -10 -11 -5 -3 -10 -1 -10 4 0 6 5 11 10 11 6 0 10 -2 10 -4z m590
-6 c0 -5 -5 -10 -11 -10 -5 0 -7 5 -4 10 3 6 8 10 11 10 2 0 4 -4 4 -10z
m1713 3 c-7 -2 -19 -2 -25 0 -7 3 -2 5 12 5 14 0 19 -2 13 -5z m-1653 -23 c0
-4 -11 -5 -25 -2 -14 2 -23 8 -20 12 6 10 45 1 45 -10z m50 0 c-12 -8 -8 -10
15 -11 25 -1 26 -2 7 -6 -13 -3 -31 -2 -40 2 -14 5 -14 7 -2 15 8 6 20 10 25
10 6 0 3 -5 -5 -10z m1527 4 c-3 -3 -12 -4 -19 -1 -8 3 -5 6 6 6 11 1 17 -2
13 -5z m-2197 -24 c0 -5 -8 -10 -17 -10 -15 0 -16 2 -3 10 19 12 20 12 20 0z
m2117 4 c-3 -3 -12 -4 -19 -1 -8 3 -5 6 6 6 11 1 17 -2 13 -5z m-100 -20 c-3
-3 -12 -4 -19 -1 -8 3 -5 6 6 6 11 1 17 -2 13 -5z m-1814 -21 c-7 -2 -21 -2
-30 0 -10 3 -4 5 12 5 17 0 24 -2 18 -5z m684 1 c-3 -3 -12 -4 -19 -1 -8 3 -5
6 6 6 11 1 17 -2 13 -5z m898 -14 c-27 -12 -43 -12 -25 0 8 5 22 9 30 9 10 0
8 -3 -5 -9z m-1534 -9 c-8 -5 -20 -7 -28 -4 -21 8 -15 13 15 13 20 0 23 -3 13
-9z m43 -30 c-4 -3 -9 0 -11 7 -3 6 -10 9 -15 6 -7 -4 -8 -2 -4 5 6 9 11 9 22
0 8 -6 12 -15 8 -18z m984 12 c-10 -2 -28 -2 -40 0 -13 2 -5 4 17 4 22 1 32
-1 23 -4z m170 0 c-27 -2 -69 -2 -95 0 -27 2 -5 3 47 3 52 0 74 -1 48 -3z m99
1 c-3 -3 -12 -4 -19 -1 -8 3 -5 6 6 6 11 1 17 -2 13 -5z m-1177 -8 c0 -3 -4
-8 -10 -11 -5 -3 -10 -1 -10 4 0 6 5 11 10 11 6 0 10 -2 10 -4z m110 -36 c12
-8 11 -10 -7 -10 -13 0 -23 5 -23 10 0 13 11 13 30 0z m1685 -80 c-3 -5 -11
-10 -16 -10 -6 0 -7 5 -4 10 3 6 11 10 16 10 6 0 7 -4 4 -10z m-4779 -157 c-6
-6 -46 30 -46 41 0 5 11 -1 25 -14 14 -13 23 -25 21 -27z m415 10 c13 -16 12
-17 -3 -4 -10 7 -18 15 -18 17 0 8 8 3 21 -13z m-201 -43 c0 -5 -4 -10 -10
-10 -5 0 -10 5 -10 10 0 6 5 10 10 10 6 0 10 -4 10 -10z m3950 -10 c0 -12 -24
-12 -60 0 -21 7 -19 8 18 9 23 1 42 -3 42 -9z m-2752 -102 c-18 -27 -47 -38
-73 -27 -16 6 -14 8 13 8 19 1 39 9 49 21 23 26 29 26 11 -2z m-733 -458 c-3
-5 -12 -10 -18 -10 -7 0 -6 4 3 10 19 12 23 12 15 0z"/>
<path d="M7472 6020 c0 -14 2 -19 5 -12 2 6 2 18 0 25 -3 6 -5 1 -5 -13z"/>
<path d="M7207 5784 c-11 -11 -8 -54 3 -54 6 0 13 6 16 14 7 17 -9 50 -19 40z"/>
<path d="M8173 4681 c1 -15 4 -17 14 -9 17 14 16 28 -1 28 -8 0 -14 -9 -13
-19z"/>
<path d="M8020 4656 c0 -2 7 -7 16 -10 8 -3 12 -2 9 4 -6 10 -25 14 -25 6z"/>
<path d="M7380 3950 c0 -5 5 -10 10 -10 6 0 10 5 10 10 0 6 -4 10 -10 10 -5 0
-10 -4 -10 -10z"/>
<path d="M2804 3677 c14 -13 22 -15 30 -7 8 8 7 13 -4 20 -10 6 -16 6 -18 -1
-2 -5 -9 -6 -16 -2 -7 4 -3 0 8 -10z"/>
<path d="M2335 3209 c-11 -16 -1 -19 13 -3 7 8 8 14 3 14 -5 0 -13 -5 -16 -11z"/>
<path d="M2320 3164 c0 -14 3 -14 15 -4 8 7 15 14 15 16 0 2 -7 4 -15 4 -8 0
-15 -7 -15 -16z"/>
<path d="M2546 3153 c-6 -14 -5 -15 5 -6 7 7 10 15 7 18 -3 3 -9 -2 -12 -12z"/>
<path d="M7752 7024 c-12 -8 -22 -20 -22 -25 0 -6 62 -74 138 -153 146 -151
215 -232 331 -388 45 -61 79 -98 90 -98 21 0 51 30 51 52 0 17 -195 269 -283
367 -159 174 -252 261 -279 261 -2 0 -14 -7 -26 -16z"/>
<path d="M4904 6750 c-265 -21 -589 -87 -824 -167 -345 -118 -712 -321 -1002
-553 -116 -93 -368 -321 -429 -387 -146 -160 -209 -234 -209 -246 0 -20 33
-47 57 -47 13 0 53 37 116 109 101 113 290 296 442 426 467 400 1013 653 1593
740 366 54 824 42 1152 -31 144 -32 339 -88 397 -114 68 -30 123 3 90 54 -37
55 -453 164 -767 200 -168 20 -469 27 -616 16z"/>
<path d="M8360 4630 c-22 -24 -82 -93 -103 -119 -10 -13 -19 -40 -20 -61 -1
-21 -5 -37 -8 -34 -4 2 -18 0 -31 -5 -18 -8 -14 -9 22 -7 25 1 55 8 68 15 12
6 26 10 31 7 8 -5 32 23 57 69 6 11 16 19 22 18 16 -4 15 42 -1 89 -17 47 -19
48 -37 28z"/>
<path d="M2090 4625 c7 -8 16 -12 21 -9 13 8 1 24 -18 24 -13 0 -13 -3 -3 -15z"/>
<path d="M1874 4523 c4 -85 28 -145 62 -152 10 -2 23 -9 29 -16 5 -7 28 -16
49 -20 28 -5 36 -9 26 -15 -11 -7 -8 -11 13 -19 16 -6 31 -11 33 -11 3 0 12
-7 20 -15 9 -8 27 -15 40 -15 17 0 23 -4 18 -12 -4 -7 -3 -8 4 -4 7 4 17 16
22 27 8 15 7 19 -4 19 -10 0 -13 -6 -10 -17 5 -15 4 -16 -5 -3 -6 8 -8 22 -6
31 3 9 -5 24 -20 35 -14 10 -25 26 -26 34 0 10 -3 9 -9 -5 -8 -19 -9 -19 -9 1
-1 12 -23 46 -51 75 -27 29 -50 57 -50 62 0 15 -39 49 -49 43 -6 -4 -9 -1 -5
7 6 17 -12 32 -49 41 l-27 6 4 -77z"/>
<path d="M8204 4435 c-10 -8 -14 -14 -9 -15 15 0 40 18 34 24 -3 3 -14 -1 -25
-9z"/>
<path d="M8196 4382 c-3 -6 -1 -14 5 -17 15 -10 25 3 12 16 -7 7 -13 7 -17 1z"/>
<path d="M2196 4252 c-3 -5 1 -9 9 -9 8 0 12 4 9 9 -3 4 -7 8 -9 8 -2 0 -6 -4
-9 -8z"/>
<path d="M2555 4220 c3 -5 8 -10 11 -10 2 0 4 5 4 10 0 6 -5 10 -11 10 -5 0
-7 -4 -4 -10z"/>
<path d="M2711 4113 c-16 -17 -10 -25 25 -29 25 -2 25 -2 7 19 -10 12 -18 23
-18 23 0 1 -6 -5 -14 -13z m24 -13 c3 -5 1 -10 -4 -10 -6 0 -11 5 -11 10 0 6
2 10 4 10 3 0 8 -4 11 -10z"/>
<path d="M2625 4110 c-3 -5 -1 -10 4 -10 6 0 11 5 11 10 0 6 -2 10 -4 10 -3 0
-8 -4 -11 -10z"/>
<path d="M2733 4025 c-24 -27 -16 -45 20 -44 19 1 25 3 13 6 -13 3 -15 7 -7
12 6 4 9 15 5 24 -7 20 -15 21 -31 2z"/>
<path d="M5018 2733 c7 -3 16 -2 19 1 4 3 -2 6 -13 5 -11 0 -14 -3 -6 -6z"/>
<path d="M6202 2580 c-12 -19 -11 -20 8 -8 11 7 20 16 20 20 0 15 -15 8 -28
-12z"/>
<path d="M6240 2585 c0 -8 -4 -15 -10 -15 -5 0 -10 -7 -10 -15 0 -11 -12 -15
-46 -15 -27 0 -43 -4 -39 -10 3 -5 28 -10 56 -10 42 0 49 3 49 20 0 14 7 20
21 20 15 0 19 4 15 16 -3 9 -6 18 -6 20 0 2 -7 4 -15 4 -8 0 -15 -7 -15 -15z"/>
<path d="M6080 2560 c0 -5 5 -10 11 -10 5 0 7 5 4 10 -3 6 -8 10 -11 10 -2 0
-4 -4 -4 -10z"/>
<path d="M1297 2469 c-9 -6 -15 -15 -12 -20 4 -5 10 -7 15 -4 5 3 11 1 15 -5
3 -5 11 -10 17 -10 6 0 4 8 -5 18 -10 10 -14 22 -10 25 9 10 1 8 -20 -4z"/>
<path d="M6160 2470 c0 -5 5 -10 10 -10 6 0 10 5 10 10 0 6 -4 10 -10 10 -5 0
-10 -4 -10 -10z"/>
<path d="M1286 2418 c3 -5 10 -6 15 -3 13 9 11 12 -6 12 -8 0 -12 -4 -9 -9z"/>
<path d="M5488 2413 c6 -2 18 -2 25 0 6 3 1 5 -13 5 -14 0 -19 -2 -12 -5z"/>
<path d="M1286 2388 c5 -8 2 -9 -10 -5 -9 4 -15 3 -11 -2 3 -5 -1 -11 -7 -13
-7 -3 -1 -7 14 -10 20 -4 25 -2 20 10 -4 11 -2 13 9 7 12 -8 12 -6 0 8 -15 19
-26 23 -15 5z"/>
<path d="M6008 2393 c7 -3 16 -2 19 1 4 3 -2 6 -13 5 -11 0 -14 -3 -6 -6z"/>
</g>
</svg>
